<?xml version="1.0" encoding="UTF-8"?>
<svg height="128px" viewBox="0 0 128 128" width="128px" xmlns="http://www.w3.org/2000/svg" xmlns:xlink="http://www.w3.org/1999/xlink">
    <linearGradient id="a" gradientUnits="userSpaceOnUse">
        <stop offset="0" stop-color="#f9f06b"/>
        <stop offset="1" stop-color="#e5a50a"/>
    </linearGradient>
    <linearGradient id="b" gradientTransform="matrix(0.564314 0 0 0.708063 58.546455 22.414413)" x1="0" x2="25.696686" xlink:href="#a" y1="0" y2="0"/>
    <radialGradient id="c" cx="78.392326" cy="249.233475" gradientTransform="matrix(0.824453 0 0 0.788713 -0.799466 -130.181442)" gradientUnits="userSpaceOnUse" r="42.551052" spreadMethod="reflect">
        <stop offset="0.764232" stop-color="#c01c28"/>
        <stop offset="0.975825" stop-color="#e01b24"/>
        <stop offset="1" stop-color="#ed333b"/>
    </radialGradient>
    <radialGradient id="d" cx="-63.06456" cy="-238.488174" gradientTransform="matrix(-0.999995 0.00310459 -0.0031955 -0.971849 0.022071 -165.287607)" gradientUnits="userSpaceOnUse" r="29.353409">
        <stop offset="0" stop-color="#deddda"/>
        <stop offset="0.873159" stop-color="#f6f5f4"/>
        <stop offset="0.96675" stop-color="#ffffff"/>
        <stop offset="1" stop-color="#c0bfbc"/>
    </radialGradient>
    <linearGradient id="e" gradientTransform="matrix(1.153176 0 0 0.346495 51.573833 17.426437)" x1="0" x2="29.369053" xlink:href="#a" y1="0" y2="0"/>
    <path d="m 107.984375 116.050781 h -88.054687 c -4.417969 0 -8.003907 -4.101562 -8.003907 -9.15625 v -74.664062 c 0 -5.058594 3.585938 -9.15625 8.003907 -9.15625 h 88.054687 c 4.417969 0 8.003906 4.097656 8.003906 9.15625 v 74.664062 c 0 5.054688 -3.585937 9.15625 -8.003906 9.15625 z m 0 0" fill="#613583"/>
    <path d="m 107.984375 114.050781 h -88.054687 c -4.417969 0 -8.003907 -3.46875 -8.003907 -7.746093 v -77.484376 c 0 -4.277343 3.585938 -7.746093 8.003907 -7.746093 h 88.054687 c 4.417969 0 8.003906 3.46875 8.003906 7.746093 v 77.484376 c 0 4.277343 -3.585937 7.746093 -8.003906 7.746093 z m 0 0" fill="#9141ac"/>
    <path d="m 11.925781 23.074219 h 12.941407 v 92.976562 h -12.941407 z m 0 0" fill="#613583"/>
    <path d="m 13.925781 21.074219 h 12.941407 v 92.976562 h -12.941407 z m 0 0" fill="#9141ac"/>
    <path d="m 107.503906 113.050781 h -82.304687 c -4.132813 0 -7.484375 -4.101562 -7.484375 -9.15625 v -74.664062 c 0 -5.058594 3.351562 -9.15625 7.484375 -9.15625 h 82.304687 c 4.132813 0 7.484375 4.097656 7.484375 9.15625 v 74.664062 c 0 5.054688 -3.351562 9.15625 -7.484375 9.15625 z m 0 0" fill="#d5d3cf"/>
    <path d="m 107.984375 107.738281 h -88.054687 c -4.417969 0 -8.003907 -4.144531 -8.003907 -9.253906 v -75.472656 c 0 -5.109375 3.585938 -9.253907 8.003907 -9.253907 h 88.054687 c 4.417969 0 8.003906 4.144532 8.003906 9.253907 v 75.472656 c 0 5.109375 -3.585937 9.253906 -8.003906 9.253906 z m 0 0" fill="#613583"/>
    <path d="m 107.984375 105.738281 h -88.054687 c -4.417969 0 -8.003907 -3.507812 -8.003907 -7.832031 v -78.316406 c 0 -4.328125 3.585938 -7.832032 8.003907 -7.832032 h 88.054687 c 4.417969 0 8.003906 3.503907 8.003906 7.832032 v 78.316406 c 0 4.324219 -3.585937 7.832031 -8.003906 7.832031 z m 0 0" fill="#9141ac"/>
    <path d="m 13.925781 20.074219 h 17.472657 v 92.976562 h -17.472657 z m 0 0" fill="#d5d3cf"/>
    <path d="m 11.925781 13.757812 h 21.265625 v 93.980469 h -21.265625 z m 0 0" fill="#613583"/>
    <path d="m 11.925781 11.757812 h 21.546875 v 93.980469 h -21.546875 z m 0 0" fill="#9141ac"/>
    <path d="m 83.738281 74.710938 c 1.347657 3.027343 -0.011719 6.574218 -3.039062 7.921874 c -3.023438 1.351563 -6.570313 -0.007812 -7.921875 -3.035156 c -1.351563 -3.023437 0.007812 -6.574218 3.035156 -7.921875 c 3.027344 -1.351562 6.574219 0.007813 7.925781 3.035157 z m 0 0"/>
    <path d="m 80.285156 77.15625 c 0 1.101562 -0.894531 2 -2 2 c -1.105468 0 -2 -0.898438 -2 -2 c 0 -1.105469 0.894532 -2 2 -2 c 1.105469 0 2 0.894531 2 2 z m 0 0" fill="#ffffff"/>
    <path d="m 58.546875 22.414062 h 10.253906 v 12.867188 h -10.253906 z m 0 0" fill="url(#b)" fill-rule="evenodd"/>
    <path d="m 98.914062 69.867188 c 0 18.535156 -15.707031 33.558593 -35.082031 33.558593 s -35.082031 -15.023437 -35.082031 -33.558593 c 0 -18.535157 15.707031 -33.5625 35.082031 -33.5625 s 35.082031 15.027343 35.082031 33.5625 z m 0 0" fill="#a51d2d"/>
    <path d="m 98.914062 66.390625 c 0 18.535156 -15.707031 33.5625 -35.082031 33.5625 s -35.082031 -15.027344 -35.082031 -33.5625 s 15.707031 -33.558594 35.082031 -33.558594 s 35.082031 15.023438 35.082031 33.558594 z m 0 0" fill="url(#c)"/>
    <g fill-rule="evenodd">
        <path d="m 34.714844 66.382812 c -0.050782 -15.632812 12.953125 -28.347656 29.039062 -28.398437 c 16.089844 -0.050781 29.175782 12.582031 29.226563 28.214844 c 0.050781 15.632812 -12.949219 28.347656 -29.039063 28.398437 c -16.089844 0.050782 -29.171875 -12.582031 -29.226562 -28.214844 z m 0 0" fill="url(#d)"/>
        <path d="m 62.992188 39.898438 h 1.539062 v 27.078124 h -1.539062 z m 0 0" stroke="#000000" stroke-linecap="square" stroke-linejoin="bevel" stroke-width="1.51708"/>
        <path d="m 165.863763 -206.668551 l 1.409537 -0.000328 l -0.001505 20.190735 l -1.409537 0.000328 z m 0 0" stroke="#000000" stroke-linecap="square" stroke-linejoin="bevel" stroke-width="1.51732" transform="matrix(-0.559999 0.828494 -0.842592 -0.538552 0 -172)"/>
        <path d="m 51.574219 17.425781 h 23.949219 v 7.195313 h -23.949219 z m 0 0" fill="url(#e)"/>
    </g>
</svg>
